<svg xmlns="http://www.w3.org/2000/svg" xmlns:xlink="http://www.w3.org/1999/xlink" id="_88ce59e9-c4b8-4d1d-9d7a-ce0190159aa8" data-name="88ce59e9-c4b8-4d1d-9d7a-ce0190159aa8" viewBox="0 0 781.43 500"><defs><style>.cls-1{opacity:.5}.cls-2{fill:url(#linear-gradient)}.cls-3{fill:#f5f5f5}.cls-4{fill:#388cf7}.cls-5{fill:#333}.cls-6{opacity:.1;isolation:isolate}.cls-7{fill:#be7c5e}.cls-8{fill:url(#linear-gradient-2)}.cls-9{fill:#f55f44}.cls-10{fill:#fda57d}.cls-11{fill:url(#linear-gradient-3)}.cls-12{fill:url(#linear-gradient-4)}.cls-13{fill:#72351c}.cls-14{fill:url(#linear-gradient-5)}.cls-15{fill:#fdb797}.cls-16{fill:url(#linear-gradient-6)}</style><linearGradient id="linear-gradient" x1="116.72" x2="116.72" y1="520.02" y2="751.8" gradientTransform="matrix(1, 0, 0, -1, 0, 758)" gradientUnits="userSpaceOnUse"><stop offset="0" stop-color="gray" stop-opacity=".25"/><stop offset=".54" stop-color="gray" stop-opacity=".12"/><stop offset="1" stop-color="gray" stop-opacity=".1"/></linearGradient><linearGradient id="linear-gradient-2" x1="118.85" x2="118.85" y1="260" y2="491.78" xlink:href="#linear-gradient"/><linearGradient id="linear-gradient-3" x1="660.16" x2="660.16" y1="263.13" y2="494.91" xlink:href="#linear-gradient"/><linearGradient id="linear-gradient-4" x1="661.23" x2="661.23" y1="524.22" y2="756" xlink:href="#linear-gradient"/><linearGradient id="linear-gradient-5" x1="392.26" x2="392.26" y1="255.35" y2="487.13" xlink:href="#linear-gradient"/><linearGradient id="linear-gradient-6" x1="392.03" x2="392.03" y1="520.65" y2="752.43" xlink:href="#linear-gradient"/></defs><g class="cls-1"><circle cx="116.72" cy="122.09" r="115.89" class="cls-2"/></g><circle cx="116.72" cy="121.46" r="113.44" class="cls-3"/><path d="M117,235.22a112.84,112.84,0,0,0,62.36-18.66c-4.18-22.84-20.09-24.15-20.09-24.15H71.6s-15,1.23-19.7,22.25A112.91,112.91,0,0,0,117,235.22Z" class="cls-4"/><circle cx="115.85" cy="118.96" r="50.29" class="cls-5"/><path d="M98.18,164.57h35.09v28.07a17.54,17.54,0,0,1-17.54,17.54h0a17.54,17.54,0,0,1-17.54-17.54h0V164.57Z" class="cls-6"/><path d="M101.53,163.27h28.39a3.35,3.35,0,0,1,3.35,3.35h0v24.72a17.54,17.54,0,0,1-17.54,17.54h0a17.54,17.54,0,0,1-17.54-17.54h0V166.62A3.35,3.35,0,0,1,101.53,163.27Z" class="cls-7"/><path d="M98.25,177.82a50.49,50.49,0,0,0,35.09.1v-4.31H98.25Z" class="cls-6"/><circle cx="115.85" cy="129.88" r="50.29" class="cls-7"/><path d="M85.38,109.14c.59-2.17,1.33-4.56,3.28-5.69,1.54-.9,3.45-.76,5.23-.67,13.9.76,27.68-2.41,41.2-5.72,7.73-1.89,16-4.19,21-10.42S154.57,60.83,147,58.52c-5-1.53-10.8,1.32-15.54-.92-2.11-1-3.66-2.87-5.48-4.33-3.73-3-8.52-4.21-13.16-5.35-5.42-1.34-11.28-2.65-16.43-.5-4,1.66-6.92,5.17-10.71,7.25-7.21,4-16,2.14-24.26,2.12-2.79,0-6.12.56-7.23,3.12-.75,1.74-.15,3.72-.07,5.61.24,6-4.71,10.67-8.86,15S37.15,91,39.77,96.41c1,2,2.83,3.6,3.87,5.63,1.79,3.52.89,7.77,1.54,11.66a29.17,29.17,0,0,0,3.27,8.4c3.08,6,18.55,38.3,25.66,30.09,3.44-4,4-15.56,5.39-20.76Q82.38,120.23,85.38,109.14Z" class="cls-5"/><ellipse cx="80.07" cy="128.05" class="cls-7" rx="4.68" ry="8.77"/><g class="cls-1"><circle cx="118.85" cy="382.11" r="115.89" class="cls-8"/></g><circle cx="119.07" cy="381.37" r="113.44" class="cls-3"/><path d="M119.17,495.26a112.92,112.92,0,0,0,62.32-18.66c-4.18-22.84-20.09-24.15-20.09-24.15H73.72s-15,1.23-19.7,22.25A112.87,112.87,0,0,0,119.17,495.26Z" class="cls-4"/><circle cx="117.97" cy="378.98" r="54.76" class="cls-9"/><path d="M100.3,424.59h35.09v28.07a17.54,17.54,0,0,1-17.54,17.54h0a17.54,17.54,0,0,1-17.54-17.54h0V424.59Z" class="cls-6"/><path d="M103.65,423.29H132a3.35,3.35,0,0,1,3.35,3.35h0v24.72a17.54,17.54,0,0,1-17.54,17.54h0a17.54,17.54,0,0,1-17.54-17.54h0V426.64a3.35,3.35,0,0,1,3.35-3.35h0Z" class="cls-10"/><path d="M100.37,437.84a50.49,50.49,0,0,0,35.09.1v-4.31H100.37Z" class="cls-6"/><circle cx="117.97" cy="389.9" r="50.29" class="cls-10"/><circle cx="117.9" cy="323.28" r="20.24" class="cls-9"/><circle cx="117.9" cy="303.35" r="13.29" class="cls-9"/><path d="M109.12,334.38A20.23,20.23,0,0,1,98.57,308.5c-.14.28-.28.57-.41.86a20.24,20.24,0,0,0,36.94,16.57c.13-.29.25-.58.37-.88A20.24,20.24,0,0,1,109.12,334.38Z" class="cls-9"/><path d="M82.16,344.16s21.19,43,81,18l-13.92-21.83-24.67-8.86Z" class="cls-6"/><path d="M82.16,343.52s21.19,43,81,18l-13.92-21.83-24.67-8.86Z" class="cls-9"/><path d="M98.49,327.86a248.78,248.78,0,0,1,39.18,0S108.73,330.55,98.49,327.86Z" class="cls-5"/><path d="M120.94,289.25a13.07,13.07,0,0,0-3,.23h.77a13.28,13.28,0,0,1,2,26.33,13.28,13.28,0,1,0,.24-26.56Z" class="cls-9"/><ellipse cx="67.67" cy="389.85" class="cls-10" rx="4.68" ry="8.77"/><ellipse cx="168.26" cy="389.85" class="cls-10" rx="4.68" ry="8.77"/><polygon points="78.99 344.79 88.8 339.73 91.01 347.84 85 351.93 78.99 344.79" class="cls-9"/><g class="cls-1"><circle cx="660.16" cy="378.98" r="115.89" class="cls-11"/></g><circle cx="660.16" cy="378.35" r="113.44" class="cls-3"/><path d="M615.91,379.36S603.05,442.72,596,439.21c0,0,67.7,58.48,127.48,0,0,0-10.53-44.65-25.73-59.85Z" class="cls-5"/><path d="M660.48,492.13a112.84,112.84,0,0,0,62.36-18.66c-4.18-22.84-20.09-24.15-20.09-24.15H615s-15,1.23-19.7,22.25A112.87,112.87,0,0,0,660.48,492.13Z" class="cls-4"/><circle cx="659.28" cy="375.85" r="50.29" class="cls-5"/><path d="M641.61,421.46H676.7v28.07a17.54,17.54,0,0,1-17.51,17.54h0a17.54,17.54,0,0,1-17.54-17.54V421.46Z" class="cls-6"/><path d="M645,420.16h28.39a3.35,3.35,0,0,1,3.35,3.35h0v24.72a17.54,17.54,0,0,1-17.51,17.54h0a17.54,17.54,0,0,1-17.54-17.54h0V423.5A3.35,3.35,0,0,1,645,420.16Z" class="cls-7"/><path d="M641.68,434.71a50.49,50.49,0,0,0,35.09.1V430.5H641.68Z" class="cls-6"/><circle cx="659.28" cy="386.76" r="50.29" class="cls-7"/><path d="M611.21,367.66h95.9s-8.19-38.72-44.44-36.25S611.21,367.66,611.21,367.66Z" class="cls-5"/><ellipse cx="610.03" cy="384.62" class="cls-7" rx="4.68" ry="8.77"/><ellipse cx="708.27" cy="384.62" class="cls-7" rx="4.68" ry="8.77"/><path d="M611.21,369h95.9s-8.19-38.72-44.44-36.25S611.21,369,611.21,369Z" class="cls-6"/><g class="cls-1"><circle cx="661.23" cy="117.89" r="115.89" class="cls-12"/></g><circle cx="661.45" cy="117.14" r="113.44" class="cls-3"/><path d="M661.55,231a112.84,112.84,0,0,0,62.36-18.66c-4.19-22.85-20.09-24.16-20.09-24.16H616.11s-15,1.23-19.7,22.25A112.92,112.92,0,0,0,661.55,231Z" class="cls-4"/><circle cx="660.36" cy="114.75" r="54.76" class="cls-13"/><path d="M642.68,160.36h35.09v28.07A17.54,17.54,0,0,1,660.26,206h0a17.54,17.54,0,0,1-17.54-17.54v-28.1Z" class="cls-6"/><path d="M646,159.06h28.39a3.35,3.35,0,0,1,3.35,3.35v24.72a17.54,17.54,0,0,1-17.54,17.54h0a17.54,17.54,0,0,1-17.54-17.54V162.41a3.35,3.35,0,0,1,3.35-3.35Z" class="cls-10"/><path d="M642.72,173.61a50.49,50.49,0,0,0,35.09.1V169.4H642.72Z" class="cls-6"/><circle cx="660.36" cy="125.67" r="50.29" class="cls-10"/><path d="M624.54,79.93s21.19,43,81,18L691.62,76.1,667,67.24Z" class="cls-6"/><path d="M624.54,79.3s21.19,43,81,18L691.62,75.47,667,66.61Z" class="cls-13"/><path d="M624.35,76.39a29.1,29.1,0,0,1,7.2-11.71c9.89-9.78,26.11-11.84,34.43-23a6.5,6.5,0,0,1-2.42,8.88,6.36,6.36,0,0,1-.58.3c8,0,17.21-.75,21.71-7.31a14.91,14.91,0,0,1-2.51,15.74c7.06.32,14.6,5.11,15.06,12.17.3,4.7-2.64,9.15-6.51,11.85s-8.53,3.91-13.13,4.91C664.18,91.22,615.59,103.63,624.35,76.39Z" class="cls-13"/><path d="M710.65,126.11h-1.33l-25.94,23.11c-25-11.7-43.34,0-43.34,0l-27.2-22.14-2.74.34a50.29,50.29,0,0,0,100.56-1.29Zm-50.36,32c-9.78,0-17.71-2-17.71-4.43s7.93-4.43,17.71-4.43,17.71,2,17.71,4.43-7.93,4.43-17.72,4.43Z" class="cls-13"/><ellipse cx="610.05" cy="125.62" class="cls-10" rx="4.68" ry="8.77"/><ellipse cx="710.64" cy="125.62" class="cls-10" rx="4.68" ry="8.77"/><g class="cls-1"><circle cx="392.26" cy="386.76" r="115.89" class="cls-14"/></g><circle cx="392.48" cy="386.02" r="113.44" class="cls-3"/><path d="M392.58,499.91a113,113,0,0,0,62.35-18.66c-4.18-22.84-20.09-24.15-20.09-24.15H347.09s-15,1.23-19.7,22.25A112.92,112.92,0,0,0,392.58,499.91Z" class="cls-4"/><circle cx="391.38" cy="383.63" r="54.76" class="cls-5"/><path d="M373.71,429.24H408.8v28.07a17.54,17.54,0,0,1-17.54,17.54h0a17.54,17.54,0,0,1-17.54-17.54h0V429.24Z" class="cls-6"/><path d="M377.06,427.94h28.39a3.35,3.35,0,0,1,3.35,3.35h0V456a17.54,17.54,0,0,1-17.54,17.54h0A17.54,17.54,0,0,1,373.71,456h0V431.28a3.35,3.35,0,0,1,3.35-3.35h0Z" class="cls-15"/><path d="M373.78,442.49a50.49,50.49,0,0,0,35.09.1v-4.34H373.78Z" class="cls-6"/><circle cx="391.38" cy="394.55" r="50.29" class="cls-15"/><path d="M355.57,348.8s21.19,43,81,18L422.65,345,398,336.11Z" class="cls-6"/><path d="M355.57,348.17s21.19,43,81,18l-13.92-21.83L398,335.48Z" class="cls-5"/><path d="M355.38,345.25a29.1,29.1,0,0,1,7.2-11.71c9.89-9.78,26.11-11.84,34.43-23a6.5,6.5,0,0,1-2.42,8.88,6.36,6.36,0,0,1-.58.3c8-.05,17.21-.75,21.71-7.31a14.91,14.91,0,0,1-2.51,15.74c7.06.32,14.6,5.11,15.06,12.17.3,4.7-2.64,9.15-6.51,11.85s-8.54,3.93-13.14,4.95C395.2,360.1,346.62,372.51,355.38,345.25Z" class="cls-5"/><ellipse cx="341.07" cy="394.5" class="cls-15" rx="4.68" ry="8.77"/><ellipse cx="441.66" cy="394.5" class="cls-15" rx="4.68" ry="8.77"/><g class="cls-1"><circle cx="392.03" cy="121.46" r="115.89" class="cls-16"/></g><circle cx="392.26" cy="120.72" r="113.44" class="cls-3"/><path d="M454.67,131.9c0,37.74-27.11,56.31-62.32,56.31s-65.16-18.57-65.16-56.31,28.54-68.33,63.74-68.33S454.67,94.13,454.67,131.9Z" class="cls-5"/><path d="M392.35,234.61A112.9,112.9,0,0,0,454.72,216c-4.18-22.84-20.09-24.15-20.09-24.15H346.91s-15,1.23-19.7,22.25A112.91,112.91,0,0,0,392.35,234.61Z" class="cls-4"/><path d="M373.49,163.91h35.09V192a17.54,17.54,0,0,1-17.51,17.57H391A17.54,17.54,0,0,1,373.46,192v-28.1Z" class="cls-6"/><path d="M376.83,162.64h28.39a3.35,3.35,0,0,1,3.35,3.35v24.72A17.54,17.54,0,0,1,391,208.25h0a17.54,17.54,0,0,1-17.54-17.54V166a3.35,3.35,0,0,1,3.35-3.35Z" class="cls-10"/><path d="M373.56,177.19a50.49,50.49,0,0,0,35.09.1V173H373.56Z" class="cls-6"/><circle cx="391.16" cy="129.24" r="50.29" class="cls-10"/><path d="M333.2,132.53s31.32-3.8,55-34.16c0,0,31.32,34.48,53.14,30.68,0,0,12.65-13.29,0-26.57s-22.46-30-39.22-27.84-37.33,3.16-46.18,11.07S333.2,132.53,333.2,132.53Z" class="cls-6"/><path d="M333.2,131.9s31.32-3.8,55-34.16c0,0,31.32,34.48,53.14,30.68,0,0,12.65-13.29,0-26.57S418.88,71.8,402.12,74,364.83,77.13,356,85.13,333.2,131.9,333.2,131.9Z" class="cls-5"/><ellipse cx="340.85" cy="129.2" class="cls-10" rx="4.68" ry="8.77"/><ellipse cx="441.44" cy="129.2" class="cls-10" rx="4.68" ry="8.77"/></svg>